<?xml version="1.0" encoding="UTF-8" standalone="no"?>
<svg
   xmlns:dc="http://purl.org/dc/elements/1.1/"
   xmlns:cc="http://creativecommons.org/ns#"
   xmlns:rdf="http://www.w3.org/1999/02/22-rdf-syntax-ns#"
   xmlns:svg="http://www.w3.org/2000/svg"
   xmlns="http://www.w3.org/2000/svg"
   xmlns:sodipodi="http://sodipodi.sourceforge.net/DTD/sodipodi-0.dtd"
   xmlns:inkscape="http://www.inkscape.org/namespaces/inkscape"
   height="100%"
   width="100%"
   version="1.1"
   id="svg2"
   viewBox="0 0 512 512"
   inkscape:version="0.91 r"
   sodipodi:docname="dialog-ok-apply.svg">
  <sodipodi:namedview
     pagecolor="#ffffff"
     bordercolor="#666666"
     borderopacity="1"
     objecttolerance="10"
     gridtolerance="10"
     guidetolerance="10"
     inkscape:pageopacity="0"
     inkscape:pageshadow="2"
     inkscape:window-width="647"
     inkscape:window-height="480"
     id="namedview8"
     showgrid="false"
     inkscape:zoom="0.4609375"
     inkscape:cx="256"
     inkscape:cy="256"
     inkscape:window-x="0"
     inkscape:window-y="0"
     inkscape:window-maximized="0"
     inkscape:current-layer="svg2" />
  <metadata
     id="metadata508">
    <rdf:RDF>
      <cc:Work
         rdf:about="">
        <dc:format>image/svg+xml</dc:format>
        <dc:type
           rdf:resource="http://purl.org/dc/dcmitype/StillImage" />
        <dc:title />
      </cc:Work>
    </rdf:RDF>
  </metadata>
  <defs
     id="defs506" />
  <path
     style="color:#000000;fill:#ff0000;stroke:none"
     d="m 423.5,68.59376 a 32.29,32.29 0 0 0 -5.1875,0.4375 32.29,32.29 0 0 0 -10.125,3.90625 c -1.77593,1.00052 -3.69283,2.88072 -5.46875,3.90625 -0.30015,0.27514 -0.50611,0.49987 -0.78125,0.75 C 323.79727,123.2923 243.76188,201.70082 172.125,297.25001 l -67.25,-38.3125 a 32.29,32.29 0 0 0 -40.625,49.25 l 107.0625,124.28125 a 32.29,32.29 0 0 0 53.15625,-7.03125 C 277.87124,316.60647 341.80902,218.50463 445.6875,124.53126 A 32.29,32.29 0 0 0 423.5,68.59376 Z"
     id="path158" />
</svg>
