<?xml version="1.0" encoding="UTF-8" standalone="no"?>
<svg
   xmlns:dc="http://purl.org/dc/elements/1.1/"
   xmlns:cc="http://creativecommons.org/ns#"
   xmlns:rdf="http://www.w3.org/1999/02/22-rdf-syntax-ns#"
   xmlns:svg="http://www.w3.org/2000/svg"
   xmlns="http://www.w3.org/2000/svg"
   xmlns:sodipodi="http://sodipodi.sourceforge.net/DTD/sodipodi-0.dtd"
   xmlns:inkscape="http://www.inkscape.org/namespaces/inkscape"
   height="100%"
   width="100%"
   version="1.1"
   id="svg2"
   viewBox="0 0 512 512"
   inkscape:version="0.91 r"
   sodipodi:docname="document-preview.svg">
  <sodipodi:namedview
     pagecolor="#ffffff"
     bordercolor="#666666"
     borderopacity="1"
     objecttolerance="10"
     gridtolerance="10"
     guidetolerance="10"
     inkscape:pageopacity="0"
     inkscape:pageshadow="2"
     inkscape:window-width="640"
     inkscape:window-height="480"
     id="namedview8"
     showgrid="false"
     inkscape:zoom="0.4609375"
     inkscape:cx="256"
     inkscape:cy="256"
     inkscape:window-x="0"
     inkscape:window-y="0"
     inkscape:window-maximized="0"
     inkscape:current-layer="svg2" />
  <metadata
     id="metadata100">
    <rdf:RDF>
      <cc:Work
         rdf:about="">
        <dc:format>image/svg+xml</dc:format>
        <dc:type
           rdf:resource="http://purl.org/dc/dcmitype/StillImage" />
        <dc:title />
      </cc:Work>
    </rdf:RDF>
  </metadata>
  <defs
     id="defs98" />
  <path
     id="path10"
     d="m 71.99998,69.8125 c -12.85466,0 -23.28125,10.42258 -23.28125,23.28125 l 0,325.81251 c 0,12.86 10.42792,23.28125 23.28125,23.28125 l 256.71876,0 c 8.208,0 15.51492,-4.49424 19.65626,-10.90625 l -13.81251,-16.75 -3.65624,-4.34375 c -16.69733,7.73468 -34.94459,13.09375 -54.53126,13.09375 -36.5,0 -69.87917,-15.14126 -93.81251,-39.28126 l -98.90625,0 0,-26.1875 78.53126,0 c -8.104,-13.93201 -13.536,-29.96325 -16,-46.53125 l -62.53126,0 0,-26.90625 61.8125,0 c 1.036,-16.54134 4.973,-32.20251 11.625,-46.56251 l -73.4375,0 0,-26.1875 88.71876,0 c 18.09333,-23.172 44.06875,-40.166 73.46875,-47.25 l 0,-94.56249 -173.84376,0 z m 197.09376,0 0,83.625 82.90626,0 -82.90626,-83.625 z m -185.43751,69.09374 117.09376,0 0,26.1875 -117.09376,0 0,-26.1875 z m 197.62502,45.28125 c -62.85334,0 -113.81251,50.94125 -113.81251,113.78126 0,62.85333 50.9725,113.81251 113.81251,113.81251 62.85333,0 113.8125,-50.95918 113.8125,-113.81251 0,-62.84001 -50.9725,-113.78126 -113.8125,-113.78126 z m 0,28.4375 c 47.06,0 85.34375,38.27709 85.34375,85.34376 0,47.06533 -38.27708,85.34375 -85.34375,85.34375 -47.06,0 -85.34377,-38.27709 -85.34377,-85.34375 0,-47.06534 38.27709,-85.34376 85.34377,-85.34376 z M 392.125,370.28126 c -10.188,15.66666 -23.47433,28.937 -39.125,39.125 l 59.875,71.68749 c 6.66667,8.00534 18.68783,8.55683 26.0625,1.18751 l 26.65625,-26.65625 c 7.37467,-7.36534 6.84375,-18.80208 -1.15625,-25.46875 l -72.3125,-59.875 z"
     style="fill:#ff0000" />
</svg>
