<?xml version="1.0" encoding="UTF-8" standalone="no"?>
<svg
   xmlns:dc="http://purl.org/dc/elements/1.1/"
   xmlns:cc="http://creativecommons.org/ns#"
   xmlns:rdf="http://www.w3.org/1999/02/22-rdf-syntax-ns#"
   xmlns:svg="http://www.w3.org/2000/svg"
   xmlns="http://www.w3.org/2000/svg"
   xmlns:sodipodi="http://sodipodi.sourceforge.net/DTD/sodipodi-0.dtd"
   xmlns:inkscape="http://www.inkscape.org/namespaces/inkscape"
   height="100%"
   width="100%"
   version="1.1"
   id="svg2"
   viewBox="0 0 512 512"
   inkscape:version="0.91 r13725"
   sodipodi:docname="help-faq.svg">
  <sodipodi:namedview
     pagecolor="#ffffff"
     bordercolor="#666666"
     borderopacity="1"
     objecttolerance="10"
     gridtolerance="10"
     guidetolerance="10"
     inkscape:pageopacity="0"
     inkscape:pageshadow="2"
     inkscape:window-width="711"
     inkscape:window-height="480"
     id="namedview8"
     showgrid="false"
     inkscape:zoom="0.4609375"
     inkscape:cx="256"
     inkscape:cy="256"
     inkscape:window-x="0"
     inkscape:window-y="25"
     inkscape:window-maximized="0"
     inkscape:current-layer="svg2" />
  <metadata
     id="metadata102">
    <rdf:RDF>
      <cc:Work
         rdf:about="">
        <dc:format>image/svg+xml</dc:format>
        <dc:type
           rdf:resource="http://purl.org/dc/dcmitype/StillImage" />
        <dc:title />
      </cc:Work>
    </rdf:RDF>
  </metadata>
  <defs
     id="defs100" />
  <path
     style="fill:#ff0000"
     id="path8"
     d="m 256.73535,56.01438 c -30.47785,0 -57.39148,8.50479 -77.20228,23.52735 -19.82024,15.02391 -32.35298,37.20862 -32.35298,62.49516 0,27.05517 19.30934,49.99883 44.84931,49.99883 21.92183,0 40.44122,-17.10799 40.44122,-38.97186 0,-13.94952 -8.00871,-25.93899 -19.1206,-35.2917 l 0,-0.73198 c -2.30651,-1.84817 -2.33751,-1.65405 -2.93874,-2.20675 0.26826,-0.5109 1.48015,-3.42267 7.35087,-6.61888 6.48272,-3.52782 16.39756,-5.8815 26.47147,-5.8815 15.25443,0 25.176,4.57121 32.35297,12.50038 7.17696,7.93053 11.76435,20.28802 11.76435,37.4971 0,18.25651 -5.41912,34.66486 -13.96975,47.0601 -18.54633,25.31754 -27.95565,37.89341 -33.82233,47.06009 -5.86667,9.16802 -7.7728,14.7543 -11.03236,23.52735 l 0,0.73737 c -5.45552,15.2706 -8.08824,30.18398 -8.08824,54.40693 l 0,27.94082 33.82233,0 12.13236,-0.18468 -0.36397,-12.31704 c -0.24804,-24.1124 1.56912,-38.02822 5.88151,-48.52945 4.30698,-10.48911 11.63224,-18.96694 27.20345,-32.35298 24.80664,-22.02159 40.68387,-37.73435 50.7362,-53.67359 10.05774,-15.93922 13.96975,-31.95799 13.96975,-50.7362 0,-28.97208 -11.62685,-54.53228 -30.88361,-72.06624 C 314.68492,65.67848 287.71197,55.99955 256.73399,55.99955 m -13.23774,313.97213 c -23.81719,0 -43.37995,19.14082 -43.37995,42.64794 0,23.81719 19.14082,43.37995 42.64796,43.37995 23.81717,0 43.37993,-19.56276 43.37993,-43.37995 0,-23.50712 -19.14082,-42.64794 -42.64794,-42.64794" />
</svg>
