<?xml version="1.0" encoding="UTF-8" standalone="no"?>
<svg
   xmlns:dc="http://purl.org/dc/elements/1.1/"
   xmlns:cc="http://creativecommons.org/ns#"
   xmlns:rdf="http://www.w3.org/1999/02/22-rdf-syntax-ns#"
   xmlns:svg="http://www.w3.org/2000/svg"
   xmlns="http://www.w3.org/2000/svg"
   xmlns:sodipodi="http://sodipodi.sourceforge.net/DTD/sodipodi-0.dtd"
   xmlns:inkscape="http://www.inkscape.org/namespaces/inkscape"
   height="100%"
   width="100%"
   version="1.1"
   id="svg2"
   viewBox="0 0 512 512"
   inkscape:version="0.91 r13725"
   sodipodi:docname="system-lock-screen.svg">
  <sodipodi:namedview
     pagecolor="#ffffff"
     bordercolor="#666666"
     borderopacity="1"
     objecttolerance="10"
     gridtolerance="10"
     guidetolerance="10"
     inkscape:pageopacity="0"
     inkscape:pageshadow="2"
     inkscape:window-width="711"
     inkscape:window-height="480"
     id="namedview8"
     showgrid="false"
     inkscape:zoom="0.4609375"
     inkscape:cx="256"
     inkscape:cy="256"
     inkscape:window-x="0"
     inkscape:window-y="25"
     inkscape:window-maximized="0"
     inkscape:current-layer="svg2" />
  <metadata
     id="metadata100">
    <rdf:RDF>
      <cc:Work
         rdf:about="">
        <dc:format>image/svg+xml</dc:format>
        <dc:type
           rdf:resource="http://purl.org/dc/dcmitype/StillImage" />
        <dc:title />
      </cc:Work>
    </rdf:RDF>
  </metadata>
  <defs
     id="defs98" />
  <path
     d="m 254.16984,41 c -56.27,0 -113.24999,37.59 -113.24999,94.6 l 0,103.72 -41.73,0 0,231.68 313.62999,0 0,-231.68 -42.99,0 0,-106.59 c 0,-42.843 -44.31,-91.73 -115.66,-91.73 m -0.806,51.96 c 30.3,-0.158 63.3,20.99 63.3,53.22 l 0,93.13 -124.23,0 0.05,-0.05 0,-92.68 c 0,-34.959 34.816,-53.49 60.881,-53.624 m 1.412,197.16 c 17.337,0 31.398,14.06 31.398,31.398 0,10.337 -5.04,19.48 -12.75,25.2 l 12.448,69.852 -61.63999,0 12.347,-69.5 c -7.978,-5.692 -13.21101,-15.01 -13.21101,-25.552 0,-17.337 14.06001,-31.398 31.398,-31.398"
     id="path143"
     style="fill:#ff0000;fill-rule:evenodd" />
</svg>
