<?xml version="1.0" encoding="UTF-8" standalone="no"?>
<svg
   xmlns:dc="http://purl.org/dc/elements/1.1/"
   xmlns:cc="http://creativecommons.org/ns#"
   xmlns:rdf="http://www.w3.org/1999/02/22-rdf-syntax-ns#"
   xmlns:svg="http://www.w3.org/2000/svg"
   xmlns="http://www.w3.org/2000/svg"
   xmlns:sodipodi="http://sodipodi.sourceforge.net/DTD/sodipodi-0.dtd"
   xmlns:inkscape="http://www.inkscape.org/namespaces/inkscape"
   viewBox="0 0 512 512"
   id="svg2"
   version="1.1"
   inkscape:version="0.91 r"
   sodipodi:docname="kiten.svg">
  <metadata
     id="metadata28">
    <rdf:RDF>
      <cc:Work
         rdf:about="">
        <dc:format>image/svg+xml</dc:format>
        <dc:type
           rdf:resource="http://purl.org/dc/dcmitype/StillImage" />
      </cc:Work>
    </rdf:RDF>
  </metadata>
  <defs
     id="defs26" />
  <sodipodi:namedview
     pagecolor="#ffffff"
     bordercolor="#666666"
     borderopacity="1"
     objecttolerance="10"
     gridtolerance="10"
     guidetolerance="10"
     inkscape:pageopacity="0"
     inkscape:pageshadow="2"
     inkscape:window-width="647"
     inkscape:window-height="480"
     id="namedview24"
     showgrid="false"
     inkscape:zoom="0.4609375"
     inkscape:cx="256"
     inkscape:cy="256"
     inkscape:window-x="0"
     inkscape:window-y="0"
     inkscape:window-maximized="0"
     inkscape:current-layer="svg2" />
  <path
     style="fill:#ff0000;fill-rule:evenodd;fill-opacity:0.38961038"
     inkscape:connector-curvature="0"
     id="path6"
     d="m 471.95,253.05 c 0,120.9 -98.01,218.91 -218.91,218.91 -120.9,0 -218.91,-98.01 -218.91,-218.91 0,-120.9 98.01,-218.91 218.91,-218.91 120.9,0 218.91,98.01 218.91,218.91" />
  <g
     fill-rule="evenodd"
     id="g18"
     style="fill:#ff0000;fill-opacity:1">
    <path
       opacity="0.25"
       d="m253.04 159.97c-51.41 0-93.08 41.674-93.08 93.08 0 25.703 10.418 48.971 27.26 65.814l140.14 140.14c61.11-22.06 109.58-70.53 131.63-131.63l-140.14-140.14c-16.844-16.844-40.11-27.26-65.814-27.26"
       id="path20"
       style="fill:#ff0000;fill-opacity:1" />
    <path
       d="m346.12 253.05c0 51.4-41.671 93.08-93.08 93.08-51.4 0-93.08-41.671-93.08-93.08 0-51.4 41.671-93.08 93.08-93.08 51.4 0 93.08 41.671 93.08 93.08"
       fill="#c50e0e"
       id="path22"
       style="fill:#ff0000;fill-opacity:1" />
  </g>
</svg>
