<?xml version="1.0" encoding="UTF-8" standalone="no"?>
<svg
   xmlns:dc="http://purl.org/dc/elements/1.1/"
   xmlns:cc="http://creativecommons.org/ns#"
   xmlns:rdf="http://www.w3.org/1999/02/22-rdf-syntax-ns#"
   xmlns:svg="http://www.w3.org/2000/svg"
   xmlns="http://www.w3.org/2000/svg"
   xmlns:sodipodi="http://sodipodi.sourceforge.net/DTD/sodipodi-0.dtd"
   xmlns:inkscape="http://www.inkscape.org/namespaces/inkscape"
   height="512"
   viewBox="0 0 512 512"
   width="512"
   version="1.1"
   id="svg2"
   inkscape:version="0.91 r"
   sodipodi:docname="radiotray.svg">
  <defs
     id="defs19" />
  <sodipodi:namedview
     pagecolor="#ffffff"
     bordercolor="#666666"
     borderopacity="1"
     objecttolerance="10"
     gridtolerance="10"
     guidetolerance="10"
     inkscape:pageopacity="0"
     inkscape:pageshadow="2"
     inkscape:window-width="1920"
     inkscape:window-height="1028"
     id="namedview17"
     showgrid="false"
     inkscape:zoom="0.4609375"
     inkscape:cx="256"
     inkscape:cy="256"
     inkscape:window-x="0"
     inkscape:window-y="0"
     inkscape:window-maximized="1"
     inkscape:current-layer="svg2" />
  <metadata
     id="metadata78">
    <rdf:RDF>
      <cc:Work
         rdf:about="">
        <dc:format>image/svg+xml</dc:format>
        <dc:type
           rdf:resource="http://purl.org/dc/dcmitype/StillImage" />
      </cc:Work>
    </rdf:RDF>
  </metadata>
  <g
     id="g66"
     fill="#ff0000"
     color="#000000"
     style="fill:#ff0000;fill-opacity:1">
    <path
       id="path68"
       d="m199.99 157.18c-30.902 30.442-30.995 79.959-0.135 110.36l14.694-14.475c-22.921-22.58-22.817-58.798 0.135-81.41l-14.69-14.47m97.33 14.343c22.921 22.58 23.09 59.06 0.135 81.68l14.694 14.475c30.902-30.442 30.725-80.22-0.135-110.63l-14.694 14.475"
       style="fill:#ff0000;fill-opacity:1" />
    <path
       id="path70"
       d="m153.84 111.72c-56.36 55.52-56.53 145.83-0.25 201.28l26.799-26.401c-41.804-41.18-41.615-107.24 0.246-148.48l-26.8-26.4m177.52 26.16c41.804 41.18 42.11 107.72 0.246 148.96l26.799 26.4c56.36-55.52 56.04-146.32-0.246-201.76l-26.799 26.401"
       style="fill:#ff0000;fill-opacity:1" />
  </g>
  <path
     id="path72"
     d="M 240.19508,212.11 262.011,481.78"
     style="fill:#118f79;fill-opacity:1;stroke:none;stroke-width:21.375;stroke-linecap:round"
     inkscape:connector-curvature="0" />
  <rect
     style="opacity:0.98000004;fill:#ff0000;fill-opacity:1;fill-rule:nonzero;stroke:none;stroke-opacity:1"
     id="rect4167"
     width="21.694916"
     height="282.03391"
     x="242.98305"
     y="201.76271"
     rx="10.4279" />
</svg>
