<?xml version="1.0" encoding="UTF-8" standalone="no"?>
<svg
   xmlns:dc="http://purl.org/dc/elements/1.1/"
   xmlns:cc="http://creativecommons.org/ns#"
   xmlns:rdf="http://www.w3.org/1999/02/22-rdf-syntax-ns#"
   xmlns:svg="http://www.w3.org/2000/svg"
   xmlns="http://www.w3.org/2000/svg"
   xmlns:sodipodi="http://sodipodi.sourceforge.net/DTD/sodipodi-0.dtd"
   xmlns:inkscape="http://www.inkscape.org/namespaces/inkscape"
   height="512"
   viewBox="0 0 512 512"
   width="512"
   version="1.1"
   id="svg2"
   inkscape:version="0.91 r"
   sodipodi:docname="variety-slideshow.svg">
  <sodipodi:namedview
     pagecolor="#ffffff"
     bordercolor="#666666"
     borderopacity="1"
     objecttolerance="10"
     gridtolerance="10"
     guidetolerance="10"
     inkscape:pageopacity="0"
     inkscape:pageshadow="2"
     inkscape:window-width="1680"
     inkscape:window-height="998"
     id="namedview21"
     showgrid="false"
     inkscape:zoom="0.921875"
     inkscape:cx="214.3108"
     inkscape:cy="373.57293"
     inkscape:window-x="0"
     inkscape:window-y="0"
     inkscape:window-maximized="1"
     inkscape:current-layer="svg2" />
  <defs
     id="defs23" />
  <metadata
     id="metadata132">
    <rdf:RDF>
      <cc:Work
         rdf:about="">
        <dc:format>image/svg+xml</dc:format>
        <dc:type
           rdf:resource="http://purl.org/dc/dcmitype/StillImage" />
        <dc:title></dc:title>
      </cc:Work>
    </rdf:RDF>
  </metadata>
  <g
     id="g4337"
     transform="matrix(1.4386839,0,0,1.4386839,-112.30309,-112.30309)">
    <path
       id="path124"
       d="m 199.69189,170.40836 c -10.93648,0.60355 -19.63874,10.46963 -19.63874,22.53561 0,12.45622 9.2536,22.57198 20.68727,22.57198 11.43459,0 20.72067,-10.11576 20.72067,-22.57198 0,-12.45622 -9.28608,-22.53561 -20.72067,-22.53561 -0.35733,0 -0.69661,-0.0197 -1.04943,0 z m 59.23929,46.5044 c -3.3775,9.8e-4 -7.06901,0.58192 -11.14673,1.82144 -11.58979,5.1724 -35.14925,44.45982 -44.65731,35.1786 -29.49873,-43.05023 -49.23222,-0.59568 -54.61925,33.64713 l 158.6151,0 c -14.58198,-32.32208 -20.68908,-70.65405 -48.19452,-70.64324 z"
       inkscape:connector-curvature="0"
       style="fill:#ff0000;stroke:#ffffff;stroke-width:2.00603127" />
    <g
       id="g4329">
      <g
         id="g68"
         style="fill:#ff0000">
        <path
           d="m 156.72,120 c -27.13,0 -49.41,22.28 -49.41,49.41 l 0,108.28 c 0,27.13 22.28,49.41 49.41,49.41 l 198.56,0 c 27.13,0 49.41,-22.28 49.41,-49.41 l 0,-108.28 C 404.69,142.28 382.41,120 355.28,120 l -198.56,0 m 3.938,24.19 190.69,0 c 15.53,0 27.938,12.309 27.938,27.813 l 0,103.09 c 0,15.504 -12.433,27.938 -27.938,27.938 l -190.69,0 c -15.503,0 -27.938,-12.434 -27.938,-27.938 l 0,-103.09 c 0,-15.504 12.409,-27.813 27.938,-27.813 M 318.158,306 c 5.155,0 9.313,4.157 9.313,9.313 0,5.155 -4.157,9.344 -9.313,9.344 -5.155,0 -9.344,-4.189 -9.344,-9.344 0,-5.155 4.189,-9.313 9.344,-9.313"
           id="path70"
           inkscape:connector-curvature="0"
           style="color:#000000" />
        <g
           id="g72"
           style="fill-rule:evenodd">
          <rect
             x="229.14"
             y="340.16"
             width="50.169998"
             height="46.169998"
             rx="11.08"
             id="rect74" />
          <rect
             x="173.8"
             y="376"
             width="160.02"
             height="16"
             rx="8"
             id="rect76" />
        </g>
      </g>
      <path
         sodipodi:nodetypes="cscc"
         inkscape:connector-curvature="0"
         id="path4151"
         d="m 302.67506,160.18144 c 0,0 72.24558,34.76121 68.36818,34.76121 -3.8774,0 -68.07582,34.36544 -68.07582,34.36544 z"
         style="fill:#ff0000;fill-opacity:1;fill-rule:evenodd;stroke:none;stroke-width:1px;stroke-linecap:butt;stroke-linejoin:miter;stroke-opacity:1" />
    </g>
  </g>
</svg>
