<?xml version="1.0" encoding="UTF-8" standalone="no"?>
<svg
   xmlns:dc="http://purl.org/dc/elements/1.1/"
   xmlns:cc="http://creativecommons.org/ns#"
   xmlns:rdf="http://www.w3.org/1999/02/22-rdf-syntax-ns#"
   xmlns:svg="http://www.w3.org/2000/svg"
   xmlns="http://www.w3.org/2000/svg"
   xmlns:sodipodi="http://sodipodi.sourceforge.net/DTD/sodipodi-0.dtd"
   xmlns:inkscape="http://www.inkscape.org/namespaces/inkscape"
   version="1.1"
   width="512"
   height="512"
   viewBox="0 0 512 512"
   id="svg2"
   inkscape:version="0.91 r"
   sodipodi:docname="applications-system.svg">
  <defs
     id="defs39" />
  <sodipodi:namedview
     pagecolor="#ffffff"
     bordercolor="#666666"
     borderopacity="1"
     objecttolerance="10"
     gridtolerance="10"
     guidetolerance="10"
     inkscape:pageopacity="0"
     inkscape:pageshadow="2"
     inkscape:window-width="1920"
     inkscape:window-height="1028"
     id="namedview37"
     showgrid="false"
     inkscape:zoom="0.4609375"
     inkscape:cx="256"
     inkscape:cy="256"
     inkscape:window-x="0"
     inkscape:window-y="0"
     inkscape:window-maximized="1"
     inkscape:current-layer="svg2" />
  <metadata
     id="metadata72">
    <rdf:RDF>
      <cc:Work
         rdf:about="">
        <dc:format>image/svg+xml</dc:format>
        <dc:type
           rdf:resource="http://purl.org/dc/dcmitype/StillImage" />
      </cc:Work>
    </rdf:RDF>
  </metadata>
  <text
     x="729.64"
     y="231.36"
     id="text20"
     font-family="Gentium Book Basic"
     word-spacing="0"
     line-height="125%"
     letter-spacing="0"
     font-size="129.23">
    <tspan
       x="729.64"
       y="231.36"
       id="tspan22" />
  </text>
  <text
     x="378.91"
     y="579.25"
     transform="scale(4.0128,0.2492)"
     id="text24"
     font-family="Arial"
     text-anchor="middle"
     font-size="46.954" />
  <text
     x="1310.91"
     y="151.36"
     id="text26"
     font-family="Gentium Book Basic"
     word-spacing="0"
     line-height="125%"
     letter-spacing="0"
     font-size="129.23">
    <tspan
       x="1310.91"
       y="151.36"
       id="tspan28" />
  </text>
  <text
     x="523.76"
     y="258.22"
     transform="scale(4.0128,0.2492)"
     id="text30"
     font-family="Arial"
     text-anchor="middle"
     font-size="46.954" />
  <text
     x="239.33"
     y="-29.901"
     id="text32"
     font-family="Gentium Book Basic"
     word-spacing="0"
     line-height="125%"
     letter-spacing="0"
     font-size="129.23">
    <tspan
       x="239.33"
       y="-29.901"
       id="tspan34" />
  </text>
  <text
     x="256.72"
     y="-469.14"
     transform="scale(4.0128,0.2492)"
     id="text36"
     font-family="Arial"
     text-anchor="middle"
     font-size="46.954" />
  <text
     x="1337.38"
     y="-246.37"
     id="text38"
     font-family="Gentium Book Basic"
     word-spacing="0"
     line-height="125%"
     letter-spacing="0"
     font-size="129.23">
    <tspan
       x="1337.38"
       y="-246.37"
       id="tspan40" />
  </text>
  <text
     x="530.36"
     y="-1337.81"
     transform="scale(4.0128,0.2492)"
     id="text42"
     font-family="Arial"
     text-anchor="middle"
     font-size="46.954" />
  <text
     x="1918.65"
     y="-326.38"
     id="text44"
     font-family="Gentium Book Basic"
     word-spacing="0"
     line-height="125%"
     letter-spacing="0"
     font-size="129.23">
    <tspan
       x="1918.65"
       y="-326.38"
       id="tspan46" />
  </text>
  <text
     x="675.21"
     y="-1658.85"
     transform="scale(4.0128,0.2492)"
     id="text48"
     font-family="Arial"
     text-anchor="middle"
     font-size="46.954" />
  <text
     x="1529.53"
     y="-798.78"
     id="text50"
     font-family="Gentium Book Basic"
     word-spacing="0"
     line-height="125%"
     letter-spacing="0"
     font-size="129.23">
    <tspan
       x="1529.53"
       y="-798.78"
       id="tspan52" />
  </text>
  <text
     x="578.24"
     y="-3554.51"
     transform="scale(4.0128,0.2492)"
     id="text54"
     font-family="Arial"
     text-anchor="middle"
     font-size="46.954" />
  <text
     x="2110.79"
     y="-878.78"
     id="text56"
     font-family="Gentium Book Basic"
     word-spacing="0"
     line-height="125%"
     letter-spacing="0"
     font-size="129.23">
    <tspan
       x="2110.79"
       y="-878.78"
       id="tspan58" />
  </text>
  <text
     x="723.09"
     y="-3875.54"
     transform="scale(4.0128,0.2492)"
     id="text60"
     font-family="Arial"
     text-anchor="middle"
     font-size="46.954" />
  <text
     x="277.99"
     y="535.94"
     id="text62"
     font-family="Gentium Book Basic"
     word-spacing="0"
     line-height="125%"
     letter-spacing="0"
     font-size="208.33">
    <tspan
       x="277.99"
       y="535.94"
       id="tspan64" />
  </text>
  <path
     d="m 77.545767,77.530061 c -13.437983,0 -24.367004,10.87965 -24.367004,24.317629 l 0,37.23647 405.637977,0 0,-37.23647 c 0,-13.442467 -10.87666,-24.317629 -24.31763,-24.317629 l -356.939879,0 M 329.009,93.725359 c 8.94369,0 16.24467,7.296491 16.24467,16.244671 0,8.94818 -7.30098,16.1953 -16.24467,16.1953 -8.9437,0 -16.1953,-7.24861 -16.1953,-16.1953 0,-8.94818 7.2516,-16.244671 16.1953,-16.244671 m 44.62421,0 c 8.9437,0 16.24467,7.296491 16.24467,16.244671 0,8.94818 -7.30097,16.1953 -16.24467,16.1953 -8.94369,0 -16.19529,-7.24861 -16.19529,-16.1953 0,-8.94818 7.2516,-16.244671 16.19529,-16.244671 m 44.62422,0 c 8.9437,0 16.1953,7.296491 16.1953,16.244671 0,8.94818 -7.2516,16.1953 -16.1953,16.1953 -8.94369,0 -16.24467,-7.24861 -16.24467,-16.1953 0,-8.94818 7.30098,-16.244671 16.24467,-16.244671 m -365.063706,66.887701 0,249.48987 c 0,13.43799 10.929021,24.36701 24.367004,24.36701 l 356.939872,0 c 13.44248,0 24.31764,-10.93351 24.31764,-24.36701 l 0,-249.48987 -405.637981,0 m 181.432221,83.18324 42.81393,0 c 7.90091,0 14.09178,6.41379 14.09178,14.28777 l 0,25.93342 c 13.00412,3.3782 25.53845,8.5981 36.89386,15.31559 l 18.4963,-18.39756 c 5.57298,-5.57746 14.63038,-5.57746 20.20785,0 l 30.28857,30.33645 c 5.57597,5.57747 5.57597,14.63038 0,20.20784 l -18.39756,18.39756 c 6.71301,11.36588 11.9359,23.90172 15.31559,36.89386 l 25.93342,0 c 7.88895,0 14.2384,6.21032 14.2384,14.09178 l 0,9.19953 -108.18309,0 c -5.80787,-33.59496 -35.01177,-59.15735 -70.26441,-59.15735 -35.25263,0 -64.51189,25.56838 -70.31228,59.15735 l -108.183089,0 0,-9.15016 c 0,-7.89792 6.401818,-14.14115 14.287769,-14.14115 l 25.93342,0 c 3.37521,-12.99663 8.5981,-25.4786 15.31559,-36.84449 l -18.39756,-18.4963 c -5.58046,-5.57746 -5.57597,-14.63037 0,-20.20784 l 30.28708,-30.28857 c 5.57298,-5.57747 14.63187,-5.57747 20.20784,0 l 18.44693,18.39756 c 11.3614,-6.70852 23.89723,-11.9359 36.89386,-15.31559 l 0,-25.93343 c 0,-7.88595 6.20583,-14.28777 14.09178,-14.28777"
     inkscape:connector-curvature="0"
     id="path66"
     style="fill:#ff0000;fill-opacity:1" />
</svg>
