<?xml version="1.0" encoding="UTF-8" standalone="no"?>
<svg
   xmlns:dc="http://purl.org/dc/elements/1.1/"
   xmlns:cc="http://creativecommons.org/ns#"
   xmlns:rdf="http://www.w3.org/1999/02/22-rdf-syntax-ns#"
   xmlns:svg="http://www.w3.org/2000/svg"
   xmlns="http://www.w3.org/2000/svg"
   xmlns:sodipodi="http://sodipodi.sourceforge.net/DTD/sodipodi-0.dtd"
   xmlns:inkscape="http://www.inkscape.org/namespaces/inkscape"
   viewBox="0 0 512 512"
   height="512"
   width="512"
   version="1.1"
   id="svg2"
   inkscape:version="0.91 r"
   sodipodi:docname="battery-charging-080.svg">
  <defs
     id="defs12" />
  <sodipodi:namedview
     pagecolor="#ffffff"
     bordercolor="#666666"
     borderopacity="1"
     objecttolerance="10"
     gridtolerance="10"
     guidetolerance="10"
     inkscape:pageopacity="0"
     inkscape:pageshadow="2"
     inkscape:window-width="647"
     inkscape:window-height="480"
     id="namedview10"
     showgrid="false"
     inkscape:zoom="0.4609375"
     inkscape:cx="256"
     inkscape:cy="256"
     inkscape:window-x="0"
     inkscape:window-y="0"
     inkscape:window-maximized="0"
     inkscape:current-layer="svg2" />
  <metadata
     id="metadata106">
    <rdf:RDF>
      <cc:Work
         rdf:about="">
        <dc:format>image/svg+xml</dc:format>
        <dc:type
           rdf:resource="http://purl.org/dc/dcmitype/StillImage" />
      </cc:Work>
    </rdf:RDF>
  </metadata>
  <path
     id="path10"
     d="m 238.48485,286.78247 c 0.99939,-3.19319 -1.04815,-6.362 -4.5704,-6.362 l -59.81742,0 c -3.52226,0 -4.29009,-2.86412 -2.03535,-5.43573 L 299.86229,111.47405 c 2.25473,-2.5838 3.07131,-2.13286 1.80378,0.99939 l -28.06836,114.19911 c -1.26752,3.13225 0.57282,5.00916 4.09508,5.00916 l 59.95148,0 c 3.52226,0 4.65572,2.82755 2.49849,5.49667 l -128.1053,163.401 c -2.14505,2.66912 -3.09569,2.19379 -2.07192,-0.99939 z"
     fill="#ffd459"
     fill-rule="evenodd"
     style="fill:#ff0000;fill-opacity:1" />
  <path
     id="path3096"
     d="m 255.99999,41 c -22.44477,0 -44.79592,3.91583 -66.40625,10.9375 -43.22114,14.04339 -80.88158,41.39022 -107.59375,78.15625 -26.7119,36.76602 -41.1875,80.64847 -41.1875,126.09375 0,45.4453 14.4756,89.32773 41.1875,126.09375 26.71217,36.76602 64.37261,64.14414 107.59375,78.1875 43.2209,14.04339 89.59132,14.04339 132.81249,0 43.2209,-14.04336 80.8816,-41.42148 107.59375,-78.1875 26.71218,-36.76602 41.18751,-80.64845 41.18751,-126.09375 0,-45.44528 -14.47533,-89.32773 -41.18751,-126.09375 C 403.28783,93.32772 365.62714,65.98089 322.40623,51.9375 300.79564,44.91583 278.44451,41 255.99999,41 Z m 0,45.65625 c 18.23853,0 35.63044,3.51366 52.09374,8.84375 34.54321,11.18371 63.9186,33.02801 84.78125,61.8125 20.23899,27.92407 32.65625,61.75072 32.65625,98.875 0,37.12427 -12.41726,70.98218 -32.65625,98.90625 -20.86265,28.78448 -50.23804,50.62885 -84.78125,61.8125 -16.4633,5.33013 -33.85521,8.8125 -52.09374,8.8125 -18.23853,0 -35.6307,-3.48237 -52.09375,-8.8125 C 169.36305,405.7226 139.98766,383.87823 119.125,355.09375 98.886,327.16968 86.46874,293.31177 86.46874,256.1875 c 0,-37.12428 12.41726,-70.95093 32.65626,-98.875 20.86266,-28.78449 50.23805,-50.62879 84.78124,-61.8125 16.46305,-5.33009 33.85522,-8.84375 52.09375,-8.84375 z"
     opacity="0.4"
     fill="#ff0000" />
  <path
     id="path3589"
     d="m 256.49999,41 0,45.65625 c 18.05583,0.0637 35.28147,3.56256 51.59374,8.84375 34.54321,11.18371 63.9186,33.02801 84.78125,61.8125 20.23899,27.92407 32.65625,61.75072 32.65625,98.875 0,37.12427 -12.41726,70.98218 -32.65625,98.90625 -20.86265,28.78448 -50.23804,50.62885 -84.78125,61.8125 -16.4633,5.33013 -33.85521,8.8125 -52.09374,8.8125 -18.23853,0 -35.6307,-3.48237 -52.09375,-8.8125 C 169.36305,405.7226 139.98766,383.87823 119.125,355.09375 98.886,327.16968 86.46874,293.31177 86.46874,256.1875 c 0,-15.45593 2.15206,-30.34396 6.125,-44.46875 L 48.40624,199.875 c -4.99313,18.21364 -7.59375,37.1235 -7.59375,56.3125 0,45.4453 14.4756,89.32773 41.1875,126.09375 26.71217,36.76602 64.37261,64.14414 107.59375,78.1875 43.2209,14.04339 89.59132,14.04339 132.81249,0 43.2209,-14.04336 80.8816,-41.42148 107.59375,-78.1875 26.71218,-36.76602 41.18751,-80.64845 41.18751,-126.09375 0,-45.44528 -14.47533,-89.32773 -41.18751,-126.09375 C 403.28783,93.32772 365.62714,65.98089 322.40623,51.9375 300.95572,44.96784 278.77685,41.05754 256.49999,41 Z"
     fill="#ff0000" />
</svg>
