<?xml version="1.0" encoding="UTF-8" standalone="no"?>
<svg
   xmlns:dc="http://purl.org/dc/elements/1.1/"
   xmlns:cc="http://creativecommons.org/ns#"
   xmlns:rdf="http://www.w3.org/1999/02/22-rdf-syntax-ns#"
   xmlns:svg="http://www.w3.org/2000/svg"
   xmlns="http://www.w3.org/2000/svg"
   xmlns:sodipodi="http://sodipodi.sourceforge.net/DTD/sodipodi-0.dtd"
   xmlns:inkscape="http://www.inkscape.org/namespaces/inkscape"
   viewBox="0 0 512 512"
   id="svg2"
   version="1.1"
   inkscape:version="0.91 r"
   sodipodi:docname="network-wired-disconnected.svg">
  <metadata
     id="metadata26">
    <rdf:RDF>
      <cc:Work
         rdf:about="">
        <dc:format>image/svg+xml</dc:format>
        <dc:type
           rdf:resource="http://purl.org/dc/dcmitype/StillImage" />
      </cc:Work>
    </rdf:RDF>
  </metadata>
  <defs
     id="defs24" />
  <sodipodi:namedview
     pagecolor="#ffffff"
     bordercolor="#666666"
     borderopacity="1"
     objecttolerance="10"
     gridtolerance="10"
     guidetolerance="10"
     inkscape:pageopacity="0"
     inkscape:pageshadow="2"
     inkscape:window-width="1920"
     inkscape:window-height="1028"
     id="namedview22"
     showgrid="false"
     inkscape:zoom="0.4609375"
     inkscape:cx="-59.661017"
     inkscape:cy="256"
     inkscape:window-x="0"
     inkscape:window-y="0"
     inkscape:window-maximized="1"
     inkscape:current-layer="svg2" />
  <path
     d="m386.15 116.76c0.594 0.122 1.639 0.349 2.303 0.489 1.431 0.296 4.832 3.174 5.721 4.814 1.098 2.057 1.465 5.424 0.855 7.971-0.523 2.162-1.814 3.698-10.918 12.889l-10.326 10.429 2.036 3.191c9.07 14.18 11.424 34.671 5.858 50.913-3.837 11.18-7.727 16.796-21.03 30.348l-10.761 10.953 5.442 5.424c6.192 6.159 7.813 8.895 7.674 12.907-0.313 8.686-9.401 13.151-16.587 8.128-1.273-0.889-26.651-26-56.39-55.814-46.99-47.09-54.16-54.49-54.694-56.44-1.955-6.907 1.465-12.61 8.319-13.883 4.256-0.785 6.854 0.558 13.588 7.116l6.087 5.913 10.918-10.727c13.517-13.275 19.15-17.16 30.33-21 16.235-5.563 36.75-3.209 50.913 5.858l3.191 2.036 10.429-10.308c8.441-8.319 10.866-10.429 12.68-10.953 2.32-0.663 2.459-0.68 4.308-0.296m-147.98 108.07c4.01 1.343 6.925 5.424 6.925 9.698 0 4.133-0.628 4.901-19.814 24.16l-18.628 18.697 14.04 14.04 14.04 14.04 18.416-18.406c18.818-18.799 20.354-20.07 24.33-20.07 2.093 0 5.582 1.291 7.099 2.651 3.052 2.704 4.186 8.964 2.303 12.628-0.541 1.047-9.102 10.06-19.05 20.04l-18.05 18.14 13.1 13.234c10.779 10.884 13.221 13.639 13.762 15.488 1.988 6.871-1.447 12.61-8.302 13.883-4.256 0.785-6.854-0.558-13.588-7.116l-6.087-5.913-10.918 10.727c-13.517 13.275-19.15 17.16-30.33 21-16.235 5.563-36.75 3.209-50.913-5.858l-3.191-2.036-10.429 10.308c-8.546 8.441-10.849 10.429-12.733 10.971-1.256 0.366-2.912 0.541-3.68 0.384s-1.988-0.418-2.738-0.575c-1.535-0.313-4.937-3.122-5.858-4.849-1.099-2.057-1.465-5.424-0.855-7.971 0.523-2.162 1.814-3.698 10.918-12.889l10.326-10.429-2.036-3.191c-9.07-14.18-11.424-34.671-5.858-50.913 3.837-11.18 7.727-16.796 21.03-30.348l10.761-10.953-5.442-5.424c-3.02-3-5.965-6.486-6.61-7.813-2.093-4.308-0.907-10.343 2.582-13.08 3.349-2.633 9-2.896 12.416-0.575 0.959 0.663 7.343 6.732 14.162 13.517l12.403 12.319 18.697-18.575c21.498-21.369 21.19-21.16 27.855-18.922"
     fill="#fffafa"
     id="path20"
     style="fill:#ff0000;fill-opacity:1" />
</svg>
