<?xml version="1.0" encoding="UTF-8" standalone="no"?>
<svg
   xmlns:dc="http://purl.org/dc/elements/1.1/"
   xmlns:cc="http://creativecommons.org/ns#"
   xmlns:rdf="http://www.w3.org/1999/02/22-rdf-syntax-ns#"
   xmlns:svg="http://www.w3.org/2000/svg"
   xmlns="http://www.w3.org/2000/svg"
   xmlns:sodipodi="http://sodipodi.sourceforge.net/DTD/sodipodi-0.dtd"
   xmlns:inkscape="http://www.inkscape.org/namespaces/inkscape"
   height="512"
   width="512"
   version="1.1"
   viewBox="0 0 512 512"
   id="svg2"
   inkscape:version="0.91 r"
   sodipodi:docname="nm-device-wired-secure.svg">
  <defs
     id="defs16" />
  <sodipodi:namedview
     pagecolor="#ffffff"
     bordercolor="#666666"
     borderopacity="1"
     objecttolerance="10"
     gridtolerance="10"
     guidetolerance="10"
     inkscape:pageopacity="0"
     inkscape:pageshadow="2"
     inkscape:window-width="647"
     inkscape:window-height="480"
     id="namedview14"
     showgrid="false"
     inkscape:zoom="0.4609375"
     inkscape:cx="256"
     inkscape:cy="256"
     inkscape:window-x="0"
     inkscape:window-y="0"
     inkscape:window-maximized="0"
     inkscape:current-layer="svg2" />
  <metadata
     id="metadata70">
    <rdf:RDF>
      <cc:Work
         rdf:about="">
        <dc:format>image/svg+xml</dc:format>
        <dc:type
           rdf:resource="http://purl.org/dc/dcmitype/StillImage" />
      </cc:Work>
    </rdf:RDF>
  </metadata>
  <g
     id="g4144"
     transform="matrix(1.2033594,0,0,1.2033594,-52.059436,-56.212986)">
    <path
       d="m 126.45,394.63 c -0.59078,-0.12138 -1.632,-0.34707 -2.292,-0.48647 -1.4243,-0.2949 -4.8106,-3.1606 -5.6991,-4.7888 -1.0943,-2.0321 -1.4584,-5.4004 -0.86861,-7.9361 0.53861,-2.2578 2.64,-4.5147 26.917,-28.879 l 26.344,-26.43 -1.1284,-1.5978 c -0.62492,-0.86861 -2.1184,-3.5598 -3.317,-5.9561 -8.6302,-17.296 -8.7004,-37.106 -0.17353,-54.194 3.5769,-7.1898 6.8598,-11.322 17.608,-22.28 l 10.679,-10.871 -5.6782,-5.7996 c -6.1647,-6.3041 -7.2761,-8.1788 -7.2761,-12.384 0,-8.6302 9.238,-13.25 16.428,-8.2139 1.2678,0.88568 26.534,25.892 56.147,55.569 50.495,50.619 53.885,54.108 54.525,56.545 1.8927,7.0855 -2.6049,13.352 -9.6724,13.528 -3.8898,0.0872 -6.2339,-1.302 -12.572,-7.4847 l -5.6991,-5.5398 -10.871,10.679 c -10.94,10.75 -15.091,14.014 -22.28,17.608 -17.088,8.5268 -36.902,8.4567 -54.194,-0.17354 -2.3963,-1.1986 -5.0884,-2.6912 -5.9561,-3.317 l -1.5978,-1.1284 -26.43,26.326 c -22.592,22.505 -26.76,26.413 -28.666,26.969 -2.31,0.65999 -2.4655,0.65999 -4.289,0.27784"
       id="path6075"
       inkscape:connector-curvature="0"
       style="fill:#ff0000" />
    <path
       d="m 317.11,308.8 c -0.59076,-0.15646 -2.0663,-0.95774 -3.2649,-1.7884 -1.1986,-0.83353 -26.395,-25.802 -56.005,-55.483 -50.495,-50.619 -53.885,-54.108 -54.525,-56.545 -1.8928,-7.0855 2.6049,-13.352 9.6724,-13.528 3.8898,-0.0872 6.2339,1.302 12.572,7.4847 l 5.6991,5.5398 10.871,-10.679 c 10.94,-10.75 15.091,-14.014 22.28,-17.608 17.088,-8.5268 36.902,-8.4566 54.194,0.17353 2.3962,1.1986 5.0884,2.6912 5.9561,3.317 l 1.5978,1.1284 26.43,-26.326 c 22.872,-22.787 26.741,-26.413 28.723,-26.969 1.2507,-0.36508 2.8448,-0.53861 3.5247,-0.39922 0.67708,0.1394 1.906,0.39922 2.7262,0.57276 1.65,0.34706 5.0182,3.0914 5.9741,4.8627 1.0943,2.0321 1.4585,5.4004 0.86862,7.9361 -0.53861,2.2578 -2.64,4.5147 -26.917,28.879 l -26.344,26.43 1.1284,1.5978 c 0.62493,0.86862 2.1184,3.5598 3.3171,5.9561 8.6302,17.296 8.7003,37.106 0.1735,54.194 -3.5768,7.1898 -6.8597,11.322 -17.608,22.28 l -10.679,10.871 5.6782,5.7996 c 3.1255,3.1957 6.0262,6.6663 6.4776,7.7104 1.6671,3.977 0.59082,9.7766 -2.2919,12.384 -2.3621,2.1355 -6.7555,3.0733 -10.228,2.2057"
       id="path3294"
       inkscape:connector-curvature="0"
       style="fill:#ff0000" />
    <path
       d="m 321.66,344.73 c -11.915,0 -23.969,7.9628 -23.969,20.034 l 0,21.957 -8.8403,0 0,49.053 66.41,0 0,-49.053 -9.1098,0 0,-22.568 c 0,-9.0716 -9.3816,-19.423 -24.49,-19.423 z m -0.17968,10.996 c 6.4156,-0.0335 13.404,4.4408 13.404,11.266 l 0,19.729 -26.305,0 0.0178,-0.0179 0,-19.621 c 0,-7.4023 7.364,-11.327 12.883,-11.356 z"
       id="path3595"
       inkscape:connector-curvature="0"
       style="fill:#ff0000;fill-rule:evenodd" />
  </g>
</svg>
