<?xml version="1.0" encoding="UTF-8" standalone="no"?>
<svg
   xmlns:dc="http://purl.org/dc/elements/1.1/"
   xmlns:cc="http://creativecommons.org/ns#"
   xmlns:rdf="http://www.w3.org/1999/02/22-rdf-syntax-ns#"
   xmlns:svg="http://www.w3.org/2000/svg"
   xmlns="http://www.w3.org/2000/svg"
   xmlns:sodipodi="http://sodipodi.sourceforge.net/DTD/sodipodi-0.dtd"
   xmlns:inkscape="http://www.inkscape.org/namespaces/inkscape"
   height="512"
   width="512"
   version="1.1"
   viewBox="0 0 512 512"
   id="svg2"
   inkscape:version="0.91 r"
   sodipodi:docname="nm-signal-75-secure.svg">
  <defs
     id="defs15" />
  <sodipodi:namedview
     pagecolor="#ffffff"
     bordercolor="#666666"
     borderopacity="1"
     objecttolerance="10"
     gridtolerance="10"
     guidetolerance="10"
     inkscape:pageopacity="0"
     inkscape:pageshadow="2"
     inkscape:window-width="640"
     inkscape:window-height="480"
     id="namedview13"
     showgrid="false"
     inkscape:zoom="0.4609375"
     inkscape:cx="256"
     inkscape:cy="256"
     inkscape:window-x="0"
     inkscape:window-y="0"
     inkscape:window-maximized="0"
     inkscape:current-layer="svg2" />
  <metadata
     id="metadata70">
    <rdf:RDF>
      <cc:Work
         rdf:about="">
        <dc:format>image/svg+xml</dc:format>
        <dc:type
           rdf:resource="http://purl.org/dc/dcmitype/StillImage" />
      </cc:Work>
    </rdf:RDF>
  </metadata>
  <path
     id="path3595"
     fill="#ff0000"
     d="m366.83 279.88c-13.892 0-27.946 9.2837-27.946 23.358v25.599h-10.307v57.19h77.426v-57.19h-10.621v-26.312c0-10.576-10.938-22.646-28.553-22.646zm-0.20949 12.821c7.4798-0.0391 15.628 5.1775 15.628 13.135v23.002h-30.669l0.0208-0.0209v-22.876c0-8.6302 8.5856-13.206 15.02-13.24z"
     fill-rule="evenodd" />
  <path
     id="path9270"
     fill="#ff0000"
     d="m250.11 179.37c-43.024 0-82.542 14.999-113.67 39.991 46.253 56.306 29.136 35.436 77.195 94.184 7.9209-11.665 21.288-19.314 36.45-19.314 15.28 0 28.742 7.7688 36.639 19.587 55.434-67.058 0.11375-0.42314 77.069-94.436-31.13-25.009-70.679-40.012-113.69-40.012z" />
  <path
     inkscape:connector-curvature="0"
     style="fill:#ff0000"
     id="path4413"
     d="m 251.66102,316.19566 c -14.681,0 -26.584,11.903 -26.584,26.584 0,14.681 11.903,26.584 26.584,26.584 14.681,0 26.584,-11.903 26.584,-26.584 0,-14.681 -11.903,-26.584 -26.584,-26.584 z" />
</svg>
